<svg id="visual" viewBox="0 0 900 600" width="900" height="600" xmlns="http://www.w3.org/2000/svg" xmlns:xlink="http://www.w3.org/1999/xlink" version="1.1"><rect x="0" y="0" width="900" height="600" fill="#ffffff"></rect><defs><linearGradient id="grad1_0" x1="33.3%" y1="0%" x2="100%" y2="100%"><stop offset="20%" stop-color="#ff9900" stop-opacity="1"></stop><stop offset="80%" stop-color="#ff9900" stop-opacity="1"></stop></linearGradient></defs><defs><linearGradient id="grad1_1" x1="33.3%" y1="0%" x2="100%" y2="100%"><stop offset="20%" stop-color="#ff9900" stop-opacity="1"></stop><stop offset="80%" stop-color="#ffffff" stop-opacity="1"></stop></linearGradient></defs><defs><linearGradient id="grad2_0" x1="0%" y1="0%" x2="66.7%" y2="100%"><stop offset="20%" stop-color="#ff9900" stop-opacity="1"></stop><stop offset="80%" stop-color="#ff9900" stop-opacity="1"></stop></linearGradient></defs><defs><linearGradient id="grad2_1" x1="0%" y1="0%" x2="66.7%" y2="100%"><stop offset="20%" stop-color="#ffffff" stop-opacity="1"></stop><stop offset="80%" stop-color="#ff9900" stop-opacity="1"></stop></linearGradient></defs><g transform="translate(900, 0)"><path d="M0 405.6C-33.1 395.4 -66.3 385.2 -100.7 375.7C-135.1 366.3 -170.8 357.5 -193.5 335.2C-216.2 312.8 -226.1 277 -256 256C-285.9 235 -335.9 228.8 -351.3 202.8C-366.6 176.8 -347.4 131.1 -350.6 94C-353.9 56.8 -379.8 28.4 -405.6 0L0 0Z" fill="#ffcb8f"></path><path d="M0 202.8C-16.6 197.7 -33.1 192.6 -50.3 187.9C-67.5 183.1 -85.4 178.7 -96.7 167.6C-108.1 156.4 -113 138.5 -128 128C-142.9 117.5 -168 114.4 -175.6 101.4C-183.3 88.4 -173.7 65.5 -175.3 47C-177 28.4 -189.9 14.2 -202.8 0L0 0Z" fill="#ff9900"></path></g><g transform="translate(0, 600)"><path d="M0 -405.6C27.8 -373.7 55.7 -341.7 89 -332.3C122.4 -322.8 161.3 -335.8 188 -325.6C214.7 -315.4 229.2 -282 260.9 -260.9C292.7 -239.9 341.8 -231.2 351.3 -202.8C360.8 -174.4 330.8 -126.4 333.2 -89.3C335.7 -52.2 370.7 -26.1 405.6 0L0 0Z" fill="#ffcb8f"></path><path d="M0 -202.8C13.9 -186.8 27.8 -170.9 44.5 -166.1C61.2 -161.4 80.7 -167.9 94 -162.8C107.3 -157.7 114.6 -141 130.5 -130.5C146.3 -119.9 170.9 -115.6 175.6 -101.4C180.4 -87.2 165.4 -63.2 166.6 -44.6C167.9 -26.1 185.3 -13.1 202.8 0L0 0Z" fill="#ff9900"></path></g></svg>